<svg xmlns="http://www.w3.org/2000/svg" xmlns:xlink="http://www.w3.org/1999/xlink" xmlns:fi="http://pattern.flaticon.com/" x="0" y="0" width="100" height="100" viewBox="0 0 350 350"><rect x="0px" y="0px" width="100%" height="100%" opacity="1" fill="#ff5500"/><defs><path d="M222.506,337.441c-2.902,0-5.702-1.584-7.121-4.343l-16.062-31.227h-15.056v27.567c0,4.418-3.582,8-8,8s-8-3.582-8-8  v-27.567h-15.056l-16.062,31.227c-2.021,3.928-6.844,5.478-10.773,3.455c-3.929-2.021-5.476-6.845-3.455-10.773l12.298-23.908  h-1.051c-4.418,0-8-3.582-8-8s3.582-8,8-8h13.93c0.158-0.005,0.317-0.005,0.479,0h27.513c0.116-0.003,0.235-0.003,0.354,0h27.514  c0.161-0.004,0.32-0.004,0.479,0h13.93c4.418,0,8,3.582,8,8s-3.582,8-8,8h-1.051l12.297,23.908  c2.021,3.929,0.474,8.752-3.455,10.773C224.988,337.155,223.738,337.441,222.506,337.441z M299.113,320.095  c-0.292,0-0.586-0.016-0.881-0.048c-3.297-0.364-6.026-2.725-6.863-5.935c-4.85-18.603-21.392-23.517-40.546-29.207  c-15.152-4.502-30.821-9.156-41.788-21.279c-13.08-14.458-16.89-34.173-10.189-52.737c1.703-4.718,3.992-9.12,6.752-13.107  L25.479,13.594c-3.089-3.159-3.032-8.225,0.126-11.313c3.161-3.09,8.225-3.032,11.313,0.126L216.513,186.06  c6.741-5.378,14.63-8.974,22.946-10.169c11.113-1.592,32.818-0.117,53.207,27.748c14.594,19.946,32.112,76.03,13.558,112.114  C304.843,318.439,302.084,320.095,299.113,320.095z M217.068,209.512c-1.241,2.136-2.309,4.413-3.173,6.809  c-4.727,13.097-2.174,26.427,7.005,36.571l0,0c7.958,8.797,20.841,12.624,34.479,16.676c14.908,4.429,31.243,9.281,41.918,21.757  c4.353-28.214-7.134-64.01-17.543-78.238c-11.617-15.877-24.765-23.267-38.021-21.357c-4.979,0.715-9.751,2.758-13.979,5.827  l26.021,26.609c3.089,3.159,3.032,8.225-0.126,11.313c-3.161,3.09-8.225,3.031-11.313-0.126L217.068,209.512z M178.705,269.345  H69.109c-4.418,0-8-3.582-8-8V90.167c0-4.418,3.582-8,8-8s8,3.582,8,8v163.178h101.596c4.418,0,8,3.582,8,8  S183.123,269.345,178.705,269.345z M283.427,169.338c-4.418,0-8-3.582-8-8V55.535H246.69v42.046c0,4.418-3.582,8-8,8s-8-3.582-8-8  V85.529c-1.188,2.932-4.062,4.999-7.418,4.999c-4.418,0-8-3.582-8-8V55.535H112.049c-4.418,0-8-3.582-8-8s3.582-8,8-8h171.378  c4.418,0,8,3.582,8,8v113.803C291.427,165.756,287.845,169.338,283.427,169.338z M223.272,135.15c-4.418,0-8-3.582-8-8v-2.253  c0-4.418,3.582-8,8-8s8,3.582,8,8v2.253C231.272,131.568,227.69,135.15,223.272,135.15z M218.368,23.008H134.17  c-4.418,0-8-3.582-8-8s3.582-8,8-8h84.198c4.418,0,8,3.582,8,8S222.786,23.008,218.368,23.008z" transform="matrix(0.15018412557758404 -0.048588980721018596 0.048588980721018596 0.15018412557758404 -21.392030161533782 282.0890383212331)" id="L1_12" fill="#ff8547"/><path d="M425.257,141.558c-2.627-4.196-7.927-5.836-12.469-3.863c-27.495,11.972-36.426,28.811-54.22,62.359  c-7.249,13.668-16.272,30.679-28.901,52.041c-1.192,2.017-2.449,4.004-3.737,5.979c0.554-17.896-0.933-36.473-4.495-55.567  c-5.111-27.393-10.04-48.227-14.001-64.968c-9.1-38.461-12.505-52.853-1.767-75.666c2.108-4.479,0.622-9.827-3.496-12.576  c-4.117-2.747-9.628-2.07-12.955,1.595c-21.749,23.952-23.001,43.283-25.746,85.64c-0.063,0.977-0.128,1.97-0.193,2.975  c-4.127-13.258-8.289-26.295-12.223-38.614c-11.967-37.477-22.302-69.843-25.819-89.282c-0.861-4.759-5.004-8.22-9.84-8.22  c-4.836,0-8.979,3.461-9.84,8.22c-3.517,19.44-13.853,51.807-25.819,89.284c-5.006,15.678-10.347,32.407-15.52,49.286  c-0.334-4.834-0.628-9.376-0.906-13.649c-2.745-42.356-3.997-61.688-25.746-85.64c-3.329-3.664-8.836-4.342-12.955-1.595  c-4.118,2.749-5.604,8.097-3.496,12.576c10.738,22.814,7.333,37.205-1.767,75.666c-3.96,16.741-8.89,37.575-14,64.968  c-3.562,19.094-5.049,37.672-4.495,55.567c-1.287-1.974-2.545-3.962-3.737-5.979c-12.629-21.362-21.651-38.373-28.901-52.041  c-17.794-33.549-26.726-50.388-54.22-62.359c-4.539-1.976-9.841-0.334-12.469,3.863c-2.627,4.196-1.787,9.684,1.974,12.902  c17.368,14.867,19.735,27.132,26.761,63.542c2.994,15.516,6.72,34.825,12.768,59.701c11.238,46.222,33.692,84.307,64.934,110.139  c27.725,22.923,61.763,35.548,95.844,35.548c3.197,0,6.413-0.128,9.585-0.352c3.169,0.223,6.385,0.351,9.584,0.352  c0.004,0,0.004,0,0.008,0c34.077,0,68.115-12.625,95.837-35.547c31.242-25.832,53.696-63.917,64.934-110.14  c6.048-24.876,9.774-44.186,12.768-59.701c7.026-36.41,9.393-48.675,26.761-63.542C427.044,151.242,427.884,145.755,425.257,141.558  z M284.213,126.01c1.124,4.994,2.389,10.342,3.759,16.135c3.912,16.533,8.78,37.108,13.802,64.03  c5.353,28.69,5.676,55.988,0.997,81.198c-11.497,12.54-24.155,24.433-36.601,36.108c-13.042,12.235-25.772,24.186-36.351,36.302  c5.134-21.13,12.747-40.37,20.608-60.232c11.471-28.98,23.332-58.948,27.477-96.15c0.321-2.884,0.62-5.685,0.906-8.435  c0.004-0.028,0.005-0.056,0.009-0.083c2.418-23.283,3.623-41.84,4.61-57.059C283.701,133.621,283.955,129.692,284.213,126.01z   M198.788,106.978c6.188-19.379,11.947-37.414,16.607-53.188c4.661,15.772,10.419,33.807,16.606,53.185  c8.781,27.497,18.703,58.583,26.748,87.518c-0.231,2.194-0.469,4.414-0.723,6.692c-3.849,34.544-14.704,61.97-26.196,91.005  c-6.555,16.562-13.215,33.388-18.441,51.636c-5.226-18.247-11.886-35.074-18.441-51.636c-11.08-27.994-21.548-54.511-25.735-87.334  C177.723,172.952,188.912,137.907,198.788,106.978z M125.007,206.175c5.022-26.922,9.891-47.497,13.802-64.03  c1.371-5.793,2.636-11.141,3.759-16.135c0.257,3.683,0.512,7.611,0.784,11.815c1.104,17.033,2.478,38.23,5.524,65.577  c4.145,37.202,16.006,67.17,27.477,96.15c7.861,19.862,15.474,39.102,20.608,60.232c-10.579-12.116-23.309-24.067-36.351-36.302  c-12.446-11.676-25.104-23.568-36.601-36.108C119.331,262.163,119.654,234.865,125.007,206.175z M62.461,272.979  c-5.935-24.411-9.611-43.46-12.564-58.766c-0.637-3.302-1.246-6.457-1.843-9.479c0.804,1.512,1.634,3.075,2.49,4.69  c7.346,13.851,16.488,31.087,29.352,52.848c7.539,12.753,16.892,24.705,26.993,35.963c0.28,0.351,0.581,0.683,0.904,0.991  c12.618,13.952,26.339,26.838,39.133,38.841c24.173,22.676,47.196,44.272,54.45,65.296  C151.096,402.286,85.492,367.702,62.461,272.979z M376.884,214.214c-2.954,15.306-6.629,34.354-12.564,58.766  c-23.033,94.733-88.634,129.313-138.916,130.385c7.254-21.023,30.277-42.62,54.45-65.296c12.796-12.004,26.519-24.893,39.138-38.846  c0.321-0.307,0.619-0.636,0.898-0.984c10.102-11.258,19.455-23.211,26.995-35.965c12.864-21.761,22.006-38.997,29.353-52.848  c0.856-1.615,1.686-3.179,2.49-4.69C378.13,207.757,377.521,210.912,376.884,214.214z" transform="matrix(0.14058732986450195 0 0 0.14058732986450195 -20 169.99999958812305)" id="L1_13" fill="#ff8547"/><path d="M209.994,0.003C94.203,0.003,0,94.208,0,210.002c0,115.792,94.203,209.995,209.994,209.995  C325.792,419.997,420,325.794,420,210.002C420,94.208,325.792,0.003,209.994,0.003z M207.313,399.963  c-27.577-0.384-53.751-6.67-77.315-17.654c24.752-17.271,45.661-39.749,61.035-65.827c17.951-30.449,27.879-65.092,28.878-100.545  c23.598-12.701,49.325-20.039,75.398-22.042C313.903,274.26,278.516,357.702,207.313,399.963z M311.697,173.19  c-35.335-0.332-70.309,8.401-101.513,25.263c-22.799-14.086-42.018-32.697-56.789-54.275  c60.288-56.275,150.223-67.357,222.415-26.852c12.794,22.798,21.018,48.484,23.434,75.817  C371.904,180.337,341.976,173.465,311.697,173.19z M353.052,85.102c-71.696-25.435-152.613-10.081-210.271,41.681  c-13.769-25.578-21.741-54.325-22.694-84.122c26.782-14.448,57.402-22.659,89.906-22.659  C266.989,20.003,318.196,45.232,353.052,85.102z M100.784,54.617c2.588,30.054,11.598,59.381,26.487,85.719  c17.393,30.768,42.434,56.68,72.635,75.271c-0.798,26.791-7.306,52.745-18.609,76.329c-78.877-24.074-133.439-96.411-134.462-179.18  C60.563,89.807,78.991,69.98,100.784,54.617z M20,210.002c0-21.567,3.619-42.302,10.27-61.64  c13.76,74.898,67.546,137.389,141.269,161.463c-15.261,24.704-36.16,45.976-61.477,61.697C56.048,337.981,20,278.127,20,210.002z   M246.492,396.466C304.469,347.1,331.691,269.279,315.68,193.4c29.045,0.865,57.936,8.338,84.223,22.421  C397.19,305.51,332.015,379.759,246.492,396.466z" transform="matrix(0.1428571492433548 0 0 0.1428571492433548 43 116)" id="L1_16" fill="#ff8547"/><path d="M364.378,352.2c24.491-26.566,42.229-59.441,50.464-95.882c0.08-0.298,0.145-0.6,0.197-0.904  c3.238-14.629,4.96-29.822,4.96-45.411c0-15.585-1.721-30.774-4.957-45.4c-0.053-0.312-0.12-0.62-0.202-0.926  c-8.236-36.437-25.972-69.309-50.46-95.873c-0.514-0.723-1.12-1.376-1.808-1.941c-26.54-28.077-60.72-48.854-99.181-58.973  c-0.391-0.129-0.788-0.238-1.192-0.317c-16.697-4.287-34.189-6.57-52.205-6.57c-17.992,0-35.461,2.278-52.138,6.554  c-0.426,0.082-0.844,0.197-1.256,0.333c-38.46,10.119-72.639,30.896-99.178,58.974c-0.687,0.565-1.293,1.217-1.806,1.939  C31.13,94.369,13.394,127.242,5.158,163.681c-0.081,0.3-0.146,0.604-0.199,0.911C1.722,179.221,0,194.414,0,210.003  c0,15.592,1.723,30.786,4.961,45.417c0.052,0.302,0.116,0.601,0.196,0.896c8.235,36.441,25.972,69.316,50.461,95.882  c0.512,0.72,1.116,1.371,1.801,1.934c26.577,28.119,60.816,48.918,99.344,59.021c0.251,0.078,0.504,0.148,0.761,0.206  c16.777,4.331,34.359,6.637,52.47,6.637c18.116,0,35.703-2.306,52.484-6.64c0.255-0.058,0.507-0.127,0.757-0.205  c38.527-10.104,72.765-30.901,99.342-59.018C363.263,353.57,363.866,352.92,364.378,352.2z M124.396,362.532  c4.754,8.005,9.296,15.746,13.677,23.314c-16.157-6.633-31.208-15.423-44.785-26.023  C103.696,360.867,114.086,361.773,124.396,362.532z M124.472,342.477c-18.439-1.379-37.128-3.234-55.705-5.524  c-20.578-22.869-35.689-50.744-43.271-81.551c6.368-10.459,13.423-21.895,21.841-35.402h72.843  c2.993,5.081,5.988,10.165,9.005,15.282c9.124,15.475,18.523,31.424,27.792,47.309C144.455,304.941,133.767,324.633,124.472,342.477  z M20,210.003c0-5.097,0.208-10.146,0.604-15.143c2.951,4.773,6.068,9.794,9.399,15.14c-3.333,5.349-6.45,10.37-9.4,15.141  C20.208,220.145,20,215.098,20,210.003z M124.396,57.469c-10.311,0.759-20.7,1.664-31.106,2.708  c13.576-10.599,28.626-19.389,44.783-26.022C133.691,41.723,129.15,49.464,124.396,57.469z M68.769,83.047  c18.571-2.289,37.259-4.144,55.703-5.524c9.298,17.85,19.988,37.544,32.508,59.89c-9.268,15.883-18.672,31.831-27.795,47.305  c-3.014,5.111-6.018,10.206-9.007,15.282h-72.84c-8.405-13.485-15.461-24.921-21.841-35.4  C33.079,133.792,48.19,105.917,68.769,83.047z M174.282,272.565c-9.301-15.94-18.723-31.929-27.869-47.441  c-2.986-5.065-5.95-10.095-8.912-15.124c2.962-5.03,5.925-10.06,8.912-15.124c9.146-15.512,18.568-31.5,27.869-47.441  c23.736-0.339,47.699-0.339,71.435,0c9.305,15.946,18.73,31.939,27.878,47.456c2.983,5.06,5.943,10.085,8.902,15.109  c-2.959,5.024-5.919,10.05-8.902,15.109c-9.149,15.516-18.574,31.51-27.878,47.456C221.982,272.904,198.02,272.904,174.282,272.565z   M295.604,57.469c-4.753-8.004-9.294-15.744-13.675-23.31c16.154,6.632,31.202,15.421,44.776,26.018  C316.302,59.133,305.914,58.227,295.604,57.469z M295.529,77.523c18.443,1.38,37.13,3.234,55.7,5.523  c20.58,22.87,35.692,50.746,43.275,81.554c-6.381,10.481-13.436,21.917-21.84,35.4h-72.841c-2.986-5.071-5.988-10.161-8.999-15.267  c-9.125-15.477-18.533-31.432-27.804-47.32C275.546,115.059,286.234,95.367,295.529,77.523z M400,210.003  c0,5.095-0.208,10.142-0.603,15.137c-2.951-4.773-6.068-9.794-9.399-15.14c3.331-5.345,6.448-10.366,9.399-15.139  C399.792,199.857,400,204.906,400,210.003z M290.824,235.267c3.015-5.113,6.006-10.191,8.996-15.267h72.843  c8.407,13.488,15.462,24.924,21.841,35.401c-7.583,30.808-22.694,58.683-43.274,81.553c-18.566,2.289-37.253,4.143-55.701,5.524  c-9.292-17.838-19.979-37.53-32.505-59.886C272.296,266.701,281.698,250.747,290.824,235.267z M295.604,362.531  c10.311-0.758,20.7-1.664,31.103-2.707c-13.575,10.597-28.623,19.386-44.778,26.019  C286.312,378.272,290.853,370.533,295.604,362.531z M253.697,25.083c7.681,13.589,15.761,27.518,24.551,42.323  c-9.277,17.838-19.981,37.57-32.561,60.027c-23.717-0.336-47.656-0.336-71.373,0c-12.577-22.45-23.28-42.183-32.561-60.027  c8.79-14.804,16.87-28.734,24.552-42.325c14.033-3.315,28.659-5.078,43.691-5.078C225.03,20.003,239.66,21.767,253.697,25.083z   M166.304,394.919c-7.682-13.59-15.762-27.52-24.552-42.325c9.276-17.835,19.976-37.561,32.551-60.009  c23.717,0.336,47.678,0.336,71.393,0c12.58,22.456,23.279,42.181,32.551,60.009c-8.784,14.795-16.864,28.724-24.551,42.323  c-14.037,3.317-28.667,5.08-43.702,5.08C194.963,399.997,180.337,398.234,166.304,394.919z" transform="matrix(0.1428571492433548 0 0 0.1428571492433548 75.00000050571987 217.00000050571987)" id="L1_17" fill="#ff8547"/><path d="M429.239,54.954c-1.548-3.736-5.194-6.173-9.239-6.173h-38.781V10c0-4.045-2.436-7.691-6.173-9.239  c-3.738-1.546-8.038-0.691-10.898,2.168l-39.168,39.168c-1.875,1.876-2.929,4.419-2.929,7.071v44.639l-32.853,32.853  C257.37,98.238,216.722,82.69,173.655,82.69c-46.421,0-90.039,18.054-122.82,50.835C18.054,166.306,0,209.924,0,256.345  s18.054,90.039,50.835,122.82C83.616,411.946,127.234,430,173.655,430s90.039-18.054,122.82-50.835  c32.781-32.781,50.835-76.399,50.835-122.82c0-43.067-15.549-83.715-43.971-115.542l32.854-32.854h44.638  c2.652,0,5.196-1.054,7.071-2.929l39.169-39.168C429.931,62.992,430.787,58.691,429.239,54.954z M342.05,53.311l19.168-19.169  v20.497L342.05,73.807V53.311z M327.31,256.345C327.31,341.07,258.381,410,173.655,410S20,341.07,20,256.345  S88.93,102.69,173.655,102.69c38.772,0,74.23,14.441,101.294,38.219l-24.486,24.486c-20.752-17.552-47.563-28.154-76.807-28.154  c-65.674,0-119.104,53.43-119.104,119.104c0,65.674,53.43,119.103,119.104,119.103c65.674,0,119.104-53.43,119.104-119.103  c0-29.244-10.601-56.055-28.154-76.807l24.486-24.486C312.869,182.115,327.31,217.573,327.31,256.345z M218.207,256.345  c0,24.566-19.986,44.552-44.552,44.552c-24.566,0-44.552-19.985-44.552-44.552s19.986-44.552,44.552-44.552  c8.669,0,16.761,2.497,23.612,6.797l-30.683,30.683c-3.905,3.905-3.905,10.237,0,14.143c1.953,1.952,4.512,2.929,7.071,2.929  c2.559,0,5.119-0.977,7.071-2.929l30.683-30.683C215.71,239.584,218.207,247.676,218.207,256.345z M211.651,204.206  c-10.668-7.796-23.801-12.413-37.996-12.413c-35.594,0-64.552,28.958-64.552,64.552c0,35.594,28.958,64.552,64.552,64.552  c35.594,0,64.552-28.958,64.552-64.552c0-14.196-4.617-27.328-12.413-37.996l24.618-24.618  c13.96,17.081,22.346,38.886,22.346,62.615c0,54.646-44.457,99.103-99.104,99.103s-99.104-44.458-99.104-99.103  s44.458-99.104,99.104-99.104c23.729,0,45.534,8.387,62.615,22.346L211.651,204.206z M376.689,87.949h-20.496l19.168-19.168h20.496  L376.689,87.949z" transform="matrix(0.13953489065170288 0 0 0.13953489065170288 181 243)" id="L1_18" fill="#ff8547"/><g transform="matrix(0.13574661314487457 0 0 0.13574661314487457 94 59.00000048054835)" id="L1_19"><path d="M231.122,91.616H34.878C15.646,91.616,0,107.262,0,126.494v115.987c0,19.232,15.646,34.878,34.878,34.878h196.244   c19.231,0,34.878-15.646,34.878-34.878V126.494C266,107.262,250.354,91.616,231.122,91.616z M246,242.481   c0,8.204-6.674,14.878-14.878,14.878H34.878c-8.204,0-14.878-6.674-14.878-14.878V126.494c0-8.204,6.674-14.878,14.878-14.878   h196.244c8.204,0,14.878,6.674,14.878,14.878V242.481z" fill="#ff8547"/><path d="M200.806,330.381h-22.864l-8.202-35.286c-1.25-5.38-6.622-8.73-12.004-7.476c-5.379,1.25-8.727,6.625-7.476,12.004   l7.149,30.757h-48.818l7.149-30.757c1.25-5.379-2.097-10.754-7.476-12.004c-5.38-1.253-10.754,2.097-12.004,7.476l-8.202,35.286   H65.194c-5.523,0-10,4.477-10,10s4.477,10,10,10h30.772c0.014,0,0.029,0.002,0.043,0.002c0.019,0,0.038-0.002,0.057-0.002h73.868   c0.019,0,0.038,0.002,0.057,0.002c0.014,0,0.029-0.002,0.043-0.002h30.772c5.523,0,10-4.477,10-10S206.329,330.381,200.806,330.381   z" fill="#ff8547"/><path d="M432,91.616H301.507c-5.522,0-10,4.477-10,10v238.765c0,5.523,4.478,10,10,10H432c5.522,0,10-4.477,10-10V101.616   C442,96.094,437.522,91.616,432,91.616z M422,330.381H311.507V111.616H422V330.381z" fill="#ff8547"/><path d="M341.507,161.616H392c5.522,0,10-4.477,10-10s-4.478-10-10-10h-50.493c-5.522,0-10,4.477-10,10   S335.984,161.616,341.507,161.616z" fill="#ff8547"/><path d="M341.507,201.616H392c5.522,0,10-4.477,10-10s-4.478-10-10-10h-50.493c-5.522,0-10,4.477-10,10   S335.984,201.616,341.507,201.616z" fill="#ff8547"/><path d="M366.753,270.381c-8.271,0-15,6.729-15,15s6.729,15,15,15s15-6.729,15-15S375.024,270.381,366.753,270.381z    M366.753,290.381c-2.757,0-5-2.243-5-5s2.243-5,5-5s5,2.243,5,5S369.51,290.381,366.753,290.381z" fill="#ff8547"/></g><g transform="matrix(0.1171875 0 0 0.1171875 145 142)" id="L1_20"><path d="M491.776,166.481c-45.187-23.423-93.028-36.246-142.395-38.208c1.72-18.141,2.595-37.402,2.595-57.402v-0.178   c-0.014-13.417-7.753-25.76-20.2-32.213C282.518,12.947,230.106,0,176,0S69.482,12.947,20.223,38.481   C7.777,44.935,0.038,57.277,0.024,70.702v0.17c0,82.535,13.981,147.714,42.743,199.26c28.474,51.031,71.029,88.068,130.098,113.229   c1.001,0.427,2.068,0.64,3.135,0.64c1.073,0,2.146-0.216,3.152-0.647c4.462-1.914,8.874-3.919,13.17-5.986   c3.236,7.155,6.713,14.077,10.445,20.765c28.474,51.031,71.029,88.068,130.098,113.229c1.001,0.427,2.068,0.64,3.135,0.64   c1.073,0,2.146-0.216,3.152-0.647c58.727-25.174,101.188-62.33,129.812-113.594c28.943-51.834,43.012-116.891,43.012-198.887   v-0.178C511.962,185.277,504.223,172.935,491.776,166.481z M175.989,367.28c-54.047-23.679-93.075-58.034-119.25-104.944   C29.342,213.235,16.024,150.606,16.024,70.872V70.71c0.007-7.423,4.438-14.329,11.563-18.023C74.548,28.343,124.481,16,176,16   s101.452,12.343,148.413,36.687c7.125,3.693,11.556,10.6,11.563,18.016v0.17c0,19.961-0.89,39.146-2.642,57.148   c-5.421,0.042-10.824,0.213-16.209,0.516c0.271-2.596,0.524-5.21,0.755-7.829c0.388-4.401-2.866-8.284-7.268-8.671   c-4.401-0.396-8.283,2.865-8.671,7.267c-0.311,3.537-0.666,7.061-1.051,10.539c-7.482,0.79-14.924,1.841-22.323,3.137   c0.301-0.682,0.59-1.373,0.863-2.073c1.605-4.116-0.431-8.754-4.548-10.359c-4.116-1.603-8.755,0.432-10.359,4.549   c-1.526,3.915-3.684,7.392-6.413,10.335c-0.603,0.65-1.071,1.375-1.418,2.141c-7.304,1.795-14.559,3.847-21.764,6.144   c-0.357-0.142-0.724-0.268-1.109-0.359c-8.636-2.048-15.977-8.875-19.636-18.261c-1.605-4.115-6.241-6.155-10.359-4.547   c-4.117,1.604-6.153,6.242-4.548,10.359c3.202,8.212,8.383,15.154,14.816,20.201c-11.439,4.481-22.735,9.603-33.869,15.374h0   c-12.446,6.453-20.186,18.796-20.199,32.221v0.17c0,3.561,0.036,7.078,0.088,10.574c-16.032,2.938-31.09,10.253-42.995,20.994   c-13.435,12.122-21.14,27.231-21.14,41.452c0,0.249,0.012,0.496,0.034,0.742c0.194,2.445,1.503,4.681,3.57,6.044   c1.327,0.875,2.862,1.321,4.405,1.321c1.067,0,2.139-0.214,3.149-0.646c19.235-8.238,38.125-13.195,56.235-14.784   c3.98,36.616,11.53,69.134,22.749,98.025C182.808,364.198,179.421,365.766,175.989,367.28z M161.892,248.633   c-15.259,1.346-30.952,4.849-46.865,10.467c6.669-14.503,23.717-28.666,45.524-33.421   C160.86,233.496,161.305,241.147,161.892,248.633z M495.976,198.872c0,79.193-13.405,141.698-40.982,191.087   c-26.325,47.146-65.277,81.627-119.004,105.322c-54.047-23.68-93.076-58.035-119.25-104.945   c-27.397-49.101-40.715-111.729-40.715-191.464v-0.162c0.007-7.423,4.438-14.329,11.563-18.023h0   C234.548,156.343,284.481,144,336,144s101.452,12.343,148.413,36.687c7.125,3.693,11.556,10.6,11.563,18.016V198.872z" fill="#ff8547"/><path d="M419.621,320.683c-2.67-1.369-5.879-1.132-8.317,0.616C390.896,335.938,364.144,344,335.976,344   s-54.92-8.062-75.327-22.701c-2.437-1.748-5.647-1.985-8.316-0.616c-2.562,1.315-4.211,3.9-4.339,6.759   c-0.011,0.186-0.018,0.371-0.018,0.559c0,51.794,38.44,112,88,112s88-60.206,88-112c0-0.18-0.006-0.357-0.017-0.537   C423.839,324.596,422.188,322.001,419.621,320.683z M335.976,424c-35.404,0-64.689-41.388-70.82-81.099   C285.861,354.002,310.452,360,335.976,360s50.114-5.998,70.82-17.099C400.665,382.613,371.38,424,335.976,424z" fill="#ff8547"/><path d="M272.599,256c10.813,0,20.692,7.421,25.169,18.906c1.233,3.161,4.254,5.096,7.456,5.096c0.966,0,1.949-0.176,2.904-0.549   c4.117-1.604,6.153-6.242,4.548-10.359C305.786,251.42,290.054,240,272.599,240c-17.455,0-33.186,11.42-40.077,29.094   c-1.605,4.116,0.431,8.755,4.547,10.359c4.116,1.608,8.754-0.432,10.36-4.547C251.908,263.421,261.787,256,272.599,256z" fill="#ff8547"/><path d="M399.353,240c-17.455,0-33.186,11.42-40.077,29.094c-1.605,4.116,0.431,8.755,4.547,10.359   c4.117,1.608,8.755-0.432,10.36-4.547C378.662,263.421,388.541,256,399.353,256c10.813,0,20.692,7.421,25.169,18.906   c1.233,3.161,4.254,5.096,7.456,5.096c0.966,0,1.949-0.176,2.904-0.549c4.117-1.604,6.153-6.242,4.548-10.359   C432.54,251.42,416.808,240,399.353,240z" fill="#ff8547"/><path d="M472.001,193.274c-0.01,0-0.02,0-0.03,0c-4.404,0-7.983,3.563-8,7.971c-0.018,4.87-0.095,9.758-0.229,14.527   c-0.124,4.416,3.357,8.097,7.773,8.221c0.076,0.002,0.152,0.003,0.228,0.003c4.314,0,7.871-3.436,7.993-7.776   c0.137-4.898,0.216-9.917,0.234-14.916C479.988,196.886,476.419,193.291,472.001,193.274z" fill="#ff8547"/><path d="M470.613,240.036c-4.395-0.387-8.284,2.866-8.671,7.267c-2.52,28.602-7.46,54.957-14.685,78.334   c-1.304,4.222,1.061,8.701,5.282,10.006c0.787,0.243,1.582,0.358,2.364,0.358c3.416,0,6.58-2.205,7.641-5.64   c7.557-24.456,12.717-51.929,15.336-81.654C478.268,244.306,475.014,240.424,470.613,240.036z" fill="#ff8547"/><path d="M152.676,130.906c1.605-4.117-0.431-8.755-4.548-10.359c-4.117-1.608-8.755,0.431-10.359,4.547   C133.291,136.579,123.412,144,112.599,144c-10.812,0-20.691-7.421-25.169-18.906c-1.605-4.116-6.243-6.156-10.36-4.547   c-4.116,1.604-6.152,6.243-4.547,10.359C79.414,148.58,95.145,160,112.599,160C130.054,160,145.786,148.58,152.676,130.906z" fill="#ff8547"/><path d="M311.517,95.993c0.076,0.002,0.152,0.003,0.228,0.003c4.314,0,7.871-3.436,7.993-7.776   c0.137-4.898,0.216-9.917,0.234-14.916c0.016-4.418-3.552-8.013-7.97-8.029c-0.01,0-0.02,0-0.03,0c-4.404,0-7.983,3.563-8,7.971   c-0.018,4.87-0.095,9.758-0.229,14.527C303.62,92.188,307.1,95.869,311.517,95.993z" fill="#ff8547"/></g><g transform="matrix(0.1318681389093399 0 0 0.1318681389093399 100 307)" id="L1_21"><path d="M227.5,88C150.58,88,88,150.579,88,227.5S150.58,367,227.5,367S367,304.421,367,227.5S304.42,88,227.5,88z M227.5,352   C158.851,352,103,296.149,103,227.5S158.851,103,227.5,103S352,158.851,352,227.5S296.149,352,227.5,352z" fill="#ff8547"/><path d="M227.5,382c-4.142,0-7.5,3.357-7.5,7.5v58c0,4.143,3.358,7.5,7.5,7.5s7.5-3.357,7.5-7.5v-58   C235,385.357,231.642,382,227.5,382z" fill="#ff8547"/><path d="M328.789,354.152c-2.434-3.352-7.124-4.095-10.476-1.659c-3.351,2.435-4.094,7.125-1.659,10.476l34.092,46.923   c1.467,2.021,3.754,3.093,6.074,3.093c1.528,0,3.071-0.466,4.402-1.434c3.351-2.435,4.094-7.125,1.659-10.476L328.789,354.152z" fill="#ff8547"/><path d="M439.05,288.351l-55.161-17.923c-3.939-1.279-8.17,0.875-9.45,4.815c-1.28,3.939,0.876,8.17,4.815,9.45l55.161,17.923   c0.77,0.25,1.551,0.369,2.319,0.369c3.161,0,6.102-2.015,7.131-5.185C445.146,293.861,442.989,289.631,439.05,288.351z" fill="#ff8547"/><path d="M381.57,184.941c0.768,0,1.549-0.119,2.319-0.369l55.161-17.923c3.939-1.28,6.096-5.511,4.815-9.45   s-5.515-6.097-9.45-4.815l-55.161,17.923c-3.939,1.28-6.096,5.511-4.815,9.45C375.468,182.927,378.408,184.941,381.57,184.941z" fill="#ff8547"/><path d="M318.313,102.507c1.331,0.968,2.874,1.434,4.402,1.434c2.319,0,4.606-1.073,6.074-3.093l34.092-46.923   c2.435-3.351,1.692-8.041-1.659-10.476c-3.352-2.438-8.042-1.691-10.476,1.659l-34.092,46.923   C314.219,95.382,314.962,100.072,318.313,102.507z" fill="#ff8547"/><path d="M227.5,73c4.142,0,7.5-3.357,7.5-7.5v-58c0-4.143-3.358-7.5-7.5-7.5S220,3.357,220,7.5v58C220,69.643,223.358,73,227.5,73z   " fill="#ff8547"/><path d="M126.211,100.848c1.467,2.021,3.754,3.093,6.074,3.093c1.528,0,3.071-0.466,4.402-1.434   c3.351-2.435,4.094-7.125,1.659-10.476l-34.092-46.923c-2.434-3.352-7.124-4.095-10.476-1.659   c-3.351,2.435-4.094,7.125-1.659,10.476L126.211,100.848z" fill="#ff8547"/><path d="M75.746,170.307l-55.161-17.923c-3.938-1.276-8.17,0.875-9.45,4.815c-1.28,3.939,0.876,8.17,4.815,9.45l55.161,17.923   c0.77,0.25,1.551,0.369,2.319,0.369c3.161,0,6.102-2.015,7.131-5.185C81.842,175.817,79.686,171.587,75.746,170.307z" fill="#ff8547"/><path d="M71.111,270.428L15.95,288.351c-3.939,1.28-6.096,5.511-4.815,9.45c1.03,3.17,3.97,5.185,7.131,5.185   c0.768,0,1.549-0.119,2.319-0.369l55.161-17.923c3.939-1.28,6.096-5.511,4.815-9.45C79.281,271.303,75.048,269.147,71.111,270.428z   " fill="#ff8547"/><path d="M136.687,352.493c-3.351-2.437-8.042-1.691-10.476,1.659L92.12,401.075c-2.435,3.351-1.692,8.041,1.659,10.476   c1.331,0.968,2.874,1.434,4.402,1.434c2.319,0,4.606-1.073,6.074-3.093l34.092-46.923   C140.781,359.618,140.038,354.928,136.687,352.493z" fill="#ff8547"/></g><path d="M440.674,47.608c-0.218-0.38-0.462-0.747-0.731-1.1c-1.421-1.86-3.392-3.098-5.534-3.629  c-0.004-0.001-0.007-0.002-0.011-0.003c-0.003-0.001-0.01-0.002-0.015-0.003c-0.006-0.002-0.012-0.005-0.017-0.004  c-0.169-0.042-0.338-0.078-0.509-0.11c-0.008,0.001-0.011-0.002-0.017-0.003c-0.005-0.001-0.009-0.001-0.014-0.002  c-1.758-0.327-3.606-0.187-5.346,0.47L6.637,193.853c-3.748,1.338-6.346,4.772-6.614,8.743c-0.269,3.971,1.843,7.723,5.377,9.554  l86.071,44.587l29.97,134.683c0.264,1.299,0.789,2.557,1.579,3.693c0.376,0.542,0.804,1.044,1.275,1.499  c1.24,1.199,2.722,2.017,4.292,2.447c0.848,0.233,1.736,0.357,2.648,0.357c0.017,0,0.033,0,0.05,0  c2.409-0.01,4.822-0.886,6.733-2.647l81.234-74.879l89.166,44.997c2.515,1.27,5.45,1.418,8.082,0.411  c2.632-1.008,4.716-3.08,5.739-5.706L441.262,56.36c0.173-0.426,0.316-0.864,0.43-1.309c0.169-0.665,0.269-1.34,0.299-2.014  C442.075,51.187,441.648,49.303,440.674,47.608z M35.003,204.961L338.477,96.599L99.882,238.57L35.003,204.961z M137.026,269.152  c-0.001,0.002-0.002,0.005-0.004,0.007s-0.003,0.006-0.004,0.008c-0.003,0.005-0.006,0.011-0.008,0.016c0,0,0,0.001,0,0.001  c-0.001,0.003-0.003,0.006-0.004,0.008c0,0.001-0.001,0.003-0.002,0.004c-0.002,0.003-0.003,0.006-0.005,0.01  c-0.001,0.001-0.001,0.002-0.002,0.004c-0.002,0.004-0.004,0.007-0.006,0.011c0,0,0,0.001-0.001,0.002  c-0.554,1.109-0.882,2.272-1.002,3.438l-7.443,58.604l-16.992-76.366l183.985-109.478L139.987,265.65  C138.778,266.543,137.754,267.723,137.026,269.152z M144.612,363.489l9.46-74.492l46.109,23.269L144.612,363.489z M307.602,344.074  l-85.31-43.051c-0.143-0.077-0.288-0.15-0.435-0.22l-57.261-28.896L409.581,82.552L307.602,344.074z" transform="matrix(0.1357463002204895 0 0 0.1357463002204895 9 6.000000878241451)" id="L1_22" fill="#ff8547"/><g transform="matrix(0.1171875 0 0 0.1171875 283 53)" id="L1_23"><path d="M360,380h-16c-4.418,0-8,3.582-8,8s3.582,8,8,8h16c4.418,0,8-3.582,8-8S364.418,380,360,380z" fill="#ff8547"/><path d="M509.224,295.044l-224-193.104c-1.55-1.336-3.465-1.965-5.362-1.931c-0.057-0.001-0.112-0.009-0.169-0.009H247.64   c-0.006,0-0.012,0-0.018,0H224V76V44c0-4.418-3.582-8-8-8h-64c-3.236,0-6.153,1.949-7.391,4.938s-0.554,6.431,1.734,8.719   L156.686,60l-10.343,10.343c-2.288,2.288-2.973,5.729-1.734,8.719S148.764,84,152,84h56v16h-24.36c-0.006,0-0.012,0-0.018,0   h-31.989c-0.002,0-0.003,0-0.005,0h-31.935c-3.108,0-5.934,1.8-7.249,4.616c-1.314,2.815-0.879,6.138,1.116,8.521   C133.189,136.574,144,166.002,144,196s-10.811,59.426-30.44,82.863c-1.996,2.383-2.431,5.705-1.116,8.521   c1.315,2.816,4.141,4.616,7.249,4.616H208v56h-60.687l-21.657-21.657c-1.5-1.5-3.535-2.343-5.657-2.343H96V108c0-4.418-3.582-8-8-8   s-8,3.582-8,8v45.705L1.216,279.76c-1.541,2.467-1.623,5.575-0.213,8.118C2.413,290.422,5.092,292,8,292h72v32H16   c-8.822,0-16,7.178-16,16v48c0,4.418,3.582,8,8,8h9.441l14.714,73.569C32.903,473.309,36.187,476,40,476h264   c43.713,0,85.241-24.623,120.093-71.208c22.155-29.612,34.884-58.846,38.394-67.454l45.843-29.508   c2.122-1.365,3.475-3.651,3.65-6.169C512.156,299.145,511.135,296.691,509.224,295.044z M22.434,276L80,183.895V276H22.434z    M420.53,276l-45.105-75.175L462.628,276H420.53z M283.938,162.141c-1.044-4.293-5.368-6.926-9.665-5.882   c-4.293,1.045-6.926,5.372-5.881,9.665c9.407,38.661,0.475,78.566-24.502,110.076h-12.252C247.436,252.213,256,224.344,256,196   s-8.564-56.213-24.363-80h12.25c4.925,6.22,9.282,12.85,12.973,19.758c1.44,2.696,4.205,4.231,7.063,4.231   c1.272,0,2.563-0.305,3.763-0.946c3.897-2.082,5.368-6.929,3.286-10.826c-2.229-4.173-4.683-8.25-7.325-12.217h12.243   c18.154,22.948,28.11,51.21,28.11,80s-9.956,57.052-28.11,80h-12.228C286.15,242.34,293.558,201.677,283.938,162.141z    M219.938,162.141c-1.044-4.293-5.37-6.926-9.665-5.882c-4.293,1.045-6.926,5.372-5.881,9.665   c9.407,38.661,0.475,78.566-24.502,110.076h-12.252C183.436,252.213,192,224.344,192,196s-8.564-56.213-24.363-80h12.25   c4.925,6.22,9.282,12.85,12.973,19.758c1.44,2.696,4.205,4.231,7.063,4.231c1.272,0,2.563-0.305,3.763-0.946   c3.897-2.082,5.368-6.929,3.286-10.826c-2.229-4.173-4.683-8.25-7.325-12.217h12.236C230.037,138.948,240,167.21,240,196   s-9.963,57.052-28.118,80h-12.22C222.15,242.34,229.558,201.677,219.938,162.141z M173.657,54.343L171.314,52H208v16h-36.686   l2.343-2.343C176.781,62.532,176.781,57.468,173.657,54.343z M160,196c0-28.343-8.561-56.214-24.358-80h12.24   C166.037,138.948,176,167.21,176,196s-9.963,57.052-28.118,80h-12.24C151.439,252.214,160,224.343,160,196z M421.78,380H392   c-4.418,0-8,3.582-8,8s3.582,8,8,8h18.581c-24.32,32.23-60.082,64-106.581,64H46.559l-12.8-64H312c4.418,0,8-3.582,8-8   s-3.582-8-8-8H24h-8v-40h100.686l19.315,19.315c3.022,3.021,7.04,4.685,11.313,4.685h129.373c4.273,0,8.291-1.664,11.313-4.686   L307.314,340H392h32h19.846C439.487,349.459,432.098,364.127,421.78,380z M453.648,324H424h-32h-88   c-2.122,0-4.157,0.843-5.657,2.343L276.687,348H224v-56h55.692c2.367,0,4.613-1.049,6.133-2.863   C307.863,262.824,320,229.748,320,196c0-17.514-3.276-34.845-9.501-51.146l26.351,22.716c0.092,0.183,0.184,0.367,0.291,0.546   l72,120c0.023,0.039,0.052,0.071,0.076,0.109c0.14,0.224,0.29,0.44,0.45,0.648c0.043,0.056,0.082,0.114,0.126,0.168   c0.191,0.234,0.395,0.457,0.61,0.668c0.075,0.073,0.154,0.14,0.231,0.21c0.155,0.14,0.313,0.275,0.479,0.403   c0.089,0.068,0.177,0.136,0.269,0.201c0.199,0.141,0.405,0.273,0.617,0.396c0.05,0.029,0.098,0.062,0.149,0.09   c0.272,0.15,0.554,0.282,0.844,0.399c0.056,0.023,0.113,0.041,0.169,0.062c0.236,0.09,0.477,0.169,0.724,0.237   c0.08,0.022,0.159,0.042,0.24,0.062c0.231,0.056,0.465,0.1,0.703,0.135c0.081,0.012,0.161,0.027,0.243,0.037   c0.294,0.034,0.592,0.055,0.895,0.057c0.015,0,0.03,0.003,0.045,0.003c0.005,0,0.01-0.001,0.015-0.001H480   c0.371,0,0.734-0.034,1.091-0.083l9.576,8.255L453.648,324z" fill="#ff8547"/><path d="M120.02,412h-0.01c-4.418,0-7.995,3.582-7.995,8s3.586,8,8.005,8s8-3.582,8-8S124.438,412,120.02,412z" fill="#ff8547"/><path d="M152.02,412h-0.01c-4.418,0-7.995,3.582-7.995,8s3.586,8,8.005,8s8-3.582,8-8S156.438,412,152.02,412z" fill="#ff8547"/><path d="M184.02,412h-0.01c-4.418,0-7.995,3.582-7.995,8s3.586,8,8.005,8s8-3.582,8-8S188.438,412,184.02,412z" fill="#ff8547"/><path d="M216.02,412h-0.01c-4.418,0-7.995,3.582-7.995,8s3.586,8,8.005,8s8-3.582,8-8S220.438,412,216.02,412z" fill="#ff8547"/><path d="M248.02,412h-0.01c-4.418,0-7.995,3.582-7.995,8s3.586,8,8.005,8s8-3.582,8-8S252.438,412,248.02,412z" fill="#ff8547"/><path d="M280.02,412h-0.01c-4.418,0-7.995,3.582-7.995,8s3.586,8,8.005,8s8-3.582,8-8S284.438,412,280.02,412z" fill="#ff8547"/><path d="M312.02,412h-0.01c-4.418,0-7.995,3.582-7.995,8s3.586,8,8.005,8s8-3.582,8-8S316.438,412,312.02,412z" fill="#ff8547"/></g><path d="M381,261.995v-161.99v-0.01V10c0-5.522-4.478-10-10-10H111C83.43,0,61,22.43,61,50v342c0,27.57,22.43,50,50,50h260  c5.522,0,10-4.478,10-10s-4.478-10-10-10h-5.638v-60H371c5.522,0,10-4.478,10-10v-89.995V261.995z M361,342h-55.857L361,286.143V342  z M361,75.857L305.143,20H361V75.857z M81,50c0-16.542,13.458-30,30-30v237.889c0,5.522,4.478,10,10,10s10-4.478,10-10V20h145.857  L361,104.143v153.715L276.857,342H131v-50c0-5.522-4.478-10-10-10s-10,4.478-10,10v50c-11.246,0-21.638,3.733-30,10.023V50z   M345.362,422H111c-16.542,0-30-13.458-30-30s13.458-30,30-30h234.362V422z" transform="matrix(0.13574661314487457 0 0 0.13574661314487457 261 213)" id="L1_24" fill="#ff8547"/><g transform="matrix(0.13648182153701782 0 0 0.13648182153701782 266 126.00000029988678)" id="L1_25"><path d="M421.005,307.896c-5.855-5.855-13.64-9.08-21.92-9.08s-16.065,3.225-21.92,9.08c-5.855,5.855-9.08,13.64-9.08,21.92   c0,8.281,3.225,16.065,9.08,21.921c0.633,0.633,0.633,1.704,0,2.338c-0.396,0.396-0.854,0.479-1.169,0.479   c-0.315,0-0.773-0.083-1.169-0.479c-0.026-0.026-0.053-0.053-0.079-0.079c0-0.001-39.947-39.064-92.182-90.157l-21.87-21.391   c72.804-74.42,155.276-158.698,171.384-175.05c10.032-10.184,10.008-26.655-0.053-36.716c-4.899-4.899-11.414-7.598-18.344-7.598   c-6.909,0-13.433,2.679-18.372,7.544c-15.999,15.76-94.91,92.986-175.5,171.825C116.749,101.632,57.712,43.831,44.309,30.629   C34.125,20.598,17.653,20.622,7.593,30.682C-2.468,40.744-2.492,57.214,7.54,67.398c13.021,13.219,72.228,73.693,171.384,175.051   c-7.379,7.218-14.685,14.364-21.864,21.387c-0.002,0.001-0.004,0.003-0.005,0.004c-52.235,51.093-92.182,90.156-92.182,90.156   c-0.027,0.026-0.054,0.053-0.08,0.079c-0.396,0.396-0.854,0.479-1.169,0.479c-0.315,0-0.773-0.083-1.169-0.479   c-0.634-0.634-0.634-1.705,0-2.338c5.855-5.855,9.08-13.64,9.08-21.921c-0.001-8.28-3.225-16.065-9.08-21.92   c-5.855-5.855-13.64-9.08-21.92-9.08s-16.065,3.225-21.92,9.08c-24.818,24.819-24.818,65.201,0,90.02   c12.006,12.007,27.992,18.619,45.01,18.619c17.019,0,33.003-6.612,45.009-18.618c0.026-0.026,0.053-0.053,0.079-0.08   c0,0,39.064-39.947,90.157-92.183c6.61-6.758,13.63-13.935,20.941-21.409l20.941,21.409c51.093,52.236,90.156,92.183,90.157,92.183   c0.026,0.026,0.052,0.053,0.079,0.08c12.004,12.004,27.989,18.616,45.008,18.618c0.002,0,0.004,0,0.006,0   c17.016,0,32.999-6.612,45.005-18.619C445.824,373.097,445.824,332.715,421.005,307.896z M261.964,298.74l13.686-13.686   c2.613,2.556,5.183,5.069,7.721,7.552l-13.855,13.855C267.034,303.922,264.52,301.352,261.964,298.74z M409.345,44.877   c1.174-1.156,2.714-1.792,4.337-1.792c1.587,0,3.08,0.618,4.201,1.74c2.322,2.321,2.298,6.152-0.053,8.539   c-16.642,16.895-103.99,106.158-178.424,182.247l-0.001,0.001c-0.001,0.001-0.001,0.001-0.001,0.001   c-16.914,17.29-33.163,33.902-47.762,48.827l-13.374-13.374c7.172-7.015,14.45-14.134,21.785-21.309   c0.002-0.002,0.004-0.003,0.006-0.005c0.002-0.002,0.003-0.004,0.005-0.006C291.105,160.692,391.089,62.86,409.345,44.877z    M170.103,306.461l-13.855-13.855c2.538-2.483,5.108-4.996,7.721-7.552l13.686,13.686   C175.1,301.352,172.586,303.922,170.103,306.461z M21.788,53.363c-2.351-2.387-2.374-6.217-0.053-8.539   c2.321-2.322,6.151-2.298,8.539,0.053c13.405,13.205,72.353,70.918,175.235,171.566c-4.104,4.015-8.202,8.023-12.288,12.02   C122.451,156.122,38.101,69.925,21.788,53.363z M94.455,383.811c-8.225,8.206-19.171,12.724-30.83,12.724   c-11.677,0-22.639-4.532-30.868-12.761c-17.02-17.021-17.02-44.715,0-61.735c2.078-2.078,4.84-3.222,7.778-3.222   s5.701,1.145,7.778,3.222c2.078,2.078,3.222,4.84,3.222,7.778c0,2.939-1.144,5.701-3.222,7.778c-8.442,8.443-8.442,22.18,0,30.622   c4.086,4.086,9.524,6.337,15.312,6.337c5.765,0,11.183-2.233,15.264-6.29c1.024-1.001,26.551-25.963,63.062-61.673l14.169,14.169   C120.527,357.149,95.611,382.628,94.455,383.811z M246.71,256.745l14.642,14.322l-13.373,13.374l-14.18-14.496   C238.036,265.612,242.345,261.207,246.71,256.745z M406.863,383.773c-8.23,8.229-19.189,12.761-30.863,12.761h-0.004   c-11.661-0.001-22.608-4.519-30.831-12.724c-1.157-1.183-26.072-26.661-61.663-63.051l14.169-14.169   c36.511,35.71,62.038,60.672,63.061,61.673c4.081,4.057,9.499,6.29,15.264,6.29c5.787,0,11.225-2.25,15.312-6.337   c8.442-8.443,8.442-22.18,0-30.622c-2.078-2.078-3.222-4.84-3.222-7.778c0-2.938,1.145-5.701,3.222-7.778   c2.077-2.077,4.84-3.222,7.778-3.222c2.938,0,5.701,1.145,7.778,3.222C423.883,339.059,423.883,366.753,406.863,383.773z" fill="#ff8547"/><path d="M219.808,136.216c25.135,0,45.584-20.447,45.584-45.58c0-25.135-20.449-45.584-45.584-45.584   c-25.133,0-45.581,20.449-45.581,45.584C174.227,115.769,194.674,136.216,219.808,136.216z M219.808,65.051   c14.107,0,25.585,11.477,25.585,25.584c0,14.105-11.477,25.581-25.585,25.581c-14.105,0-25.581-11.476-25.581-25.581   C194.227,76.528,205.703,65.051,219.808,65.051z" fill="#ff8547"/></g><g transform="matrix(0.13574661314487457 0 0 0.13574661314487457 249 -27)" id="L1_26"><path d="M394.523,89.038c-4.547-15.392-18.65-26.413-35.512-26.413h-24.937c-16.843,0-30.942,11.005-35.509,26.378h-37.993   l-16.57-38.614c-5.074-11.823-18.604-20.739-31.47-20.739h-80.591c-12.787,0-26.404,8.786-31.675,20.438l-17.6,38.915H48.872   C21.924,89.003,0,110.939,0,137.902v225.549c0,26.963,21.924,48.899,48.872,48.899H393.14c26.941,0,48.86-21.937,48.86-48.899   V137.902C442,111.404,420.826,89.775,394.523,89.038z M334.074,82.625h24.937c5.292,0,10.07,2.502,13.217,6.378h-51.373   C324.005,85.127,328.784,82.625,334.074,82.625z M422,363.451c0,15.936-12.946,28.899-28.86,28.899H48.872   c-15.92,0-28.872-12.964-28.872-28.899V137.902c0-15.936,12.952-28.899,28.872-28.899h60.22c5.522,0,10-4.478,10-10   s-4.478-10-10-10h-4.475l13.872-30.673c2.019-4.462,8.556-8.681,13.452-8.681h80.591c4.825,0,11.188,4.192,13.091,8.627   l13.186,30.727h-94.681c-5.522,0-10,4.478-10,10s4.478,10,10,10h109.818c0.013,0,0.027,0.003,0.04,0.003   c0.02,0,0.039-0.003,0.059-0.003H393.14c15.914,0,28.86,12.964,28.86,28.899V363.451z" fill="#ff8547"/><path d="M172.264,136.822c-61.135,0-110.872,49.748-110.872,110.897c0,61.113,49.737,110.833,110.872,110.833   c61.121,0,110.847-49.72,110.847-110.833C283.11,186.57,233.385,136.822,172.264,136.822z M172.264,338.553   c-50.107,0-90.872-40.747-90.872-90.833c0-50.121,40.765-90.897,90.872-90.897c50.093,0,90.847,40.776,90.847,90.897   C263.11,297.806,222.356,338.553,172.264,338.553z" fill="#ff8547"/><path d="M172.265,166.538c-44.757,0-81.17,36.418-81.17,81.183c0,44.734,36.413,81.129,81.17,81.129   c44.734,0,81.129-36.395,81.129-81.129C253.394,202.956,216.999,166.538,172.265,166.538z M172.265,308.85   c-33.729,0-61.17-27.422-61.17-61.129c0-33.736,27.44-61.183,61.17-61.183c33.707,0,61.129,27.446,61.129,61.183   C233.394,281.428,205.972,308.85,172.265,308.85z" fill="#ff8547"/><path d="M203.701,237.712c-5.522,0-10,4.478-10,10c0,11.818-9.619,21.434-21.443,21.434c-11.84,0-21.473-9.615-21.473-21.434   c0-11.846,9.633-21.482,21.473-21.482c5.522,0,10-4.478,10-10s-4.478-10-10-10c-22.868,0-41.473,18.609-41.473,41.482   c0,22.847,18.604,41.434,41.473,41.434c22.852,0,41.443-18.587,41.443-41.434C213.701,242.189,209.224,237.712,203.701,237.712z" fill="#ff8547"/><path d="M386.062,131.873H307.01c-5.522,0-10,4.478-10,10v48.909c0,5.522,4.478,10,10,10h79.052c5.522,0,10-4.478,10-10v-48.909   C396.062,136.351,391.584,131.873,386.062,131.873z M376.062,180.782H317.01v-28.909h59.052V180.782z" fill="#ff8547"/></g><g transform="matrix(0.13436496257781982 0 0 0.13436496257781982 187 39)" id="L1_27"><path d="M133.639,213.912c1.953,1.953,4.512,2.929,7.071,2.929s5.119-0.976,7.071-2.929c3.905-3.905,3.905-10.237,0-14.143   l-18.611-18.611l26.662-26.662c3.905-3.905,3.905-10.237,0-14.142s-10.237-3.905-14.142,0l-26.661,26.662l-23.419-23.419   l26.662-26.662c3.905-3.905,3.905-10.237,0-14.143c-3.905-3.905-10.237-3.905-14.143,0l-26.662,26.662l-53.3-53.299L76.444,24.23   l123.438,123.438c3.905,3.905,10.237,3.905,14.143,0c3.905-3.905,3.905-10.237,0-14.142L83.54,3.041   C79.644-0.854,73.33-0.865,69.421,3.017L2.953,69.035C1.067,70.909,0.004,73.455,0,76.113s1.049,5.208,2.929,7.088L133.639,213.912   z" fill="#ff8547"/><path d="M443.617,363.118L313.019,232.52c-3.905-3.905-10.237-3.905-14.143,0c-3.905,3.905-3.905,10.237,0,14.143l123.527,123.526   l-52.101,52.101l-53.323-53.324l26.662-26.662c3.905-3.905,3.905-10.237,0-14.142s-10.237-3.905-14.142,0l-26.661,26.662   l-23.419-23.419l26.662-26.662c3.905-3.905,3.905-10.237,0-14.143s-10.237-3.905-14.143,0l-26.662,26.662l-18.499-18.499   c-3.905-3.904-10.237-3.904-14.143,0c-3.905,3.905-3.905,10.237,0,14.143l130.598,130.598c1.953,1.953,4.512,2.929,7.071,2.929   s5.119-0.976,7.071-2.929l66.243-66.243C447.521,373.355,447.521,367.023,443.617,363.118z" fill="#ff8547"/><path d="M63.324,61.988c-3.778,3.777-5.858,8.8-5.858,14.143c0,5.342,2.081,10.365,5.858,14.142   c3.777,3.778,8.8,5.858,14.142,5.858s10.365-2.081,14.143-5.858c7.797-7.798,7.797-20.486,0-28.284   c-3.778-3.777-8.8-5.857-14.143-5.857S67.101,58.21,63.324,61.988z" fill="#ff8547"/><path d="M384.445,383.109c3.777-3.778,5.858-8.8,5.858-14.142c0-5.342-2.081-10.365-5.858-14.143   c-3.778-3.777-8.8-5.857-14.143-5.857c-5.342,0-10.364,2.08-14.142,5.857c-3.778,3.778-5.858,8.8-5.858,14.143   c0,5.342,2.08,10.364,5.857,14.142c3.778,3.778,8.8,5.858,14.142,5.858C375.645,388.967,380.667,386.887,384.445,383.109z" fill="#ff8547"/><path d="M402.429,114.827c0.002-0.002,0.003-0.003,0.005-0.005s0.003-0.003,0.005-0.005l28.645-28.645   c19.495-19.495,19.495-51.216,0-70.711c-9.432-9.431-21.988-14.625-35.355-14.625c-13.368,0-25.924,5.194-35.356,14.626   l-28.64,28.64c-0.003,0.003-0.007,0.006-0.01,0.009s-0.006,0.007-0.009,0.01l-35.342,35.342c-0.001,0.001-0.003,0.002-0.004,0.004   s-0.002,0.003-0.004,0.004L67.16,308.674c-0.019,0.019-0.034,0.042-0.053,0.061c-0.306,0.312-0.59,0.643-0.853,0.991   c-0.057,0.075-0.108,0.153-0.163,0.23c-0.229,0.323-0.441,0.657-0.631,1.004c-0.021,0.039-0.05,0.073-0.071,0.112l-37.247,70.484   c-0.019,0.035-0.038,0.07-0.056,0.106L1.996,431.036c-2.05,3.879-1.332,8.641,1.77,11.744c1.923,1.922,4.482,2.929,7.074,2.929   c1.591,0,3.194-0.379,4.669-1.159l49.379-26.094c0.032-0.016,0.063-0.033,0.095-0.05l70.489-37.25   c0.019-0.01,0.036-0.024,0.055-0.034c0.384-0.207,0.753-0.441,1.107-0.695c0.062-0.045,0.124-0.089,0.185-0.135   c0.347-0.262,0.677-0.545,0.989-0.851c0.02-0.02,0.044-0.035,0.064-0.055L402.429,114.827z M62.137,397.288l-12.88-12.88   l21.055-39.842l4.323,19.719c0.011,0.051,0.032,0.098,0.044,0.149c0.087,0.372,0.196,0.738,0.326,1.1   c0.025,0.069,0.046,0.138,0.072,0.206c0.154,0.401,0.334,0.793,0.542,1.176c0.032,0.059,0.069,0.114,0.102,0.172   c0.178,0.313,0.376,0.617,0.591,0.913c0.062,0.085,0.122,0.17,0.186,0.253c0.257,0.332,0.53,0.656,0.834,0.961   c0.305,0.305,0.629,0.578,0.962,0.835c0.082,0.063,0.166,0.123,0.25,0.184c0.298,0.216,0.604,0.415,0.919,0.595   c0.056,0.032,0.109,0.067,0.166,0.098c0.384,0.209,0.778,0.389,1.18,0.544c0.066,0.025,0.133,0.046,0.199,0.07   c0.364,0.131,0.734,0.241,1.109,0.329c0.049,0.012,0.095,0.032,0.145,0.043l19.718,4.322L62.137,397.288z M104.399,356.288   l36.76-36.761c3.905-3.905,3.905-10.237,0-14.142s-10.237-3.905-14.142,0l-36.76,36.76l-5.086-23.198l218.268-218.267   l14.142,14.142L151.135,281.267c-3.905,3.905-3.905,10.237,0,14.143c1.953,1.953,4.512,2.929,7.071,2.929   c2.559,0,5.119-0.977,7.071-2.929l166.445-166.445l14.142,14.142L127.597,361.374L104.399,356.288z M338.794,65.326l42.426,42.426   l-21.213,21.213l-42.426-42.426L338.794,65.326z M374.515,29.605c5.654-5.655,13.188-8.769,21.213-8.769   c8.025,0,15.559,3.114,21.212,8.768c11.697,11.697,11.697,30.729,0,42.426l-21.578,21.578l-42.426-42.426L374.515,29.605z    M39.478,402.914l4.154,4.154l-8.809,4.655L39.478,402.914z" fill="#ff8547"/></g></defs><g fi:class="KUsePattern"><pattern id="pattern_L1_12" width="350" height="350" patternUnits="userSpaceOnUse"><use xlink:href="#L1_12" x="-350" y="-350"/><use xlink:href="#L1_12" x="0" y="-350"/><use xlink:href="#L1_12" x="350" y="-350"/><use xlink:href="#L1_12" x="-350" y="0"/><use xlink:href="#L1_12" x="0" y="0"/><use xlink:href="#L1_12" x="350" y="0"/><use xlink:href="#L1_12" x="-350" y="350"/><use xlink:href="#L1_12" x="0" y="350"/><use xlink:href="#L1_12" x="350" y="350"/></pattern><rect x="0" y="0" width="100%" height="100%" fill="url(#pattern_L1_12)"/></g><g fi:class="KUsePattern"><pattern id="pattern_L1_13" width="350" height="350" patternUnits="userSpaceOnUse"><use xlink:href="#L1_13" x="-350" y="-350"/><use xlink:href="#L1_13" x="0" y="-350"/><use xlink:href="#L1_13" x="350" y="-350"/><use xlink:href="#L1_13" x="-350" y="0"/><use xlink:href="#L1_13" x="0" y="0"/><use xlink:href="#L1_13" x="350" y="0"/><use xlink:href="#L1_13" x="-350" y="350"/><use xlink:href="#L1_13" x="0" y="350"/><use xlink:href="#L1_13" x="350" y="350"/></pattern><rect x="0" y="0" width="100%" height="100%" fill="url(#pattern_L1_13)"/></g><g fi:class="KUsePattern"><pattern id="pattern_L1_16" width="350" height="350" patternUnits="userSpaceOnUse"><use xlink:href="#L1_16" x="-350" y="-350"/><use xlink:href="#L1_16" x="0" y="-350"/><use xlink:href="#L1_16" x="350" y="-350"/><use xlink:href="#L1_16" x="-350" y="0"/><use xlink:href="#L1_16" x="0" y="0"/><use xlink:href="#L1_16" x="350" y="0"/><use xlink:href="#L1_16" x="-350" y="350"/><use xlink:href="#L1_16" x="0" y="350"/><use xlink:href="#L1_16" x="350" y="350"/></pattern><rect x="0" y="0" width="100%" height="100%" fill="url(#pattern_L1_16)"/></g><g fi:class="KUsePattern"><pattern id="pattern_L1_17" width="350" height="350" patternUnits="userSpaceOnUse"><use xlink:href="#L1_17" x="-350" y="-350"/><use xlink:href="#L1_17" x="0" y="-350"/><use xlink:href="#L1_17" x="350" y="-350"/><use xlink:href="#L1_17" x="-350" y="0"/><use xlink:href="#L1_17" x="0" y="0"/><use xlink:href="#L1_17" x="350" y="0"/><use xlink:href="#L1_17" x="-350" y="350"/><use xlink:href="#L1_17" x="0" y="350"/><use xlink:href="#L1_17" x="350" y="350"/></pattern><rect x="0" y="0" width="100%" height="100%" fill="url(#pattern_L1_17)"/></g><g fi:class="KUsePattern"><pattern id="pattern_L1_18" width="350" height="350" patternUnits="userSpaceOnUse"><use xlink:href="#L1_18" x="-350" y="-350"/><use xlink:href="#L1_18" x="0" y="-350"/><use xlink:href="#L1_18" x="350" y="-350"/><use xlink:href="#L1_18" x="-350" y="0"/><use xlink:href="#L1_18" x="0" y="0"/><use xlink:href="#L1_18" x="350" y="0"/><use xlink:href="#L1_18" x="-350" y="350"/><use xlink:href="#L1_18" x="0" y="350"/><use xlink:href="#L1_18" x="350" y="350"/></pattern><rect x="0" y="0" width="100%" height="100%" fill="url(#pattern_L1_18)"/></g><g fi:class="KUsePattern"><pattern id="pattern_L1_19" width="350" height="350" patternUnits="userSpaceOnUse"><use xlink:href="#L1_19" x="-350" y="-350"/><use xlink:href="#L1_19" x="0" y="-350"/><use xlink:href="#L1_19" x="350" y="-350"/><use xlink:href="#L1_19" x="-350" y="0"/><use xlink:href="#L1_19" x="0" y="0"/><use xlink:href="#L1_19" x="350" y="0"/><use xlink:href="#L1_19" x="-350" y="350"/><use xlink:href="#L1_19" x="0" y="350"/><use xlink:href="#L1_19" x="350" y="350"/></pattern><rect x="0" y="0" width="100%" height="100%" fill="url(#pattern_L1_19)"/></g><g fi:class="KUsePattern"><pattern id="pattern_L1_20" width="350" height="350" patternUnits="userSpaceOnUse"><use xlink:href="#L1_20" x="-350" y="-350"/><use xlink:href="#L1_20" x="0" y="-350"/><use xlink:href="#L1_20" x="350" y="-350"/><use xlink:href="#L1_20" x="-350" y="0"/><use xlink:href="#L1_20" x="0" y="0"/><use xlink:href="#L1_20" x="350" y="0"/><use xlink:href="#L1_20" x="-350" y="350"/><use xlink:href="#L1_20" x="0" y="350"/><use xlink:href="#L1_20" x="350" y="350"/></pattern><rect x="0" y="0" width="100%" height="100%" fill="url(#pattern_L1_20)"/></g><g fi:class="KUsePattern"><pattern id="pattern_L1_21" width="350" height="350" patternUnits="userSpaceOnUse"><use xlink:href="#L1_21" x="-350" y="-350"/><use xlink:href="#L1_21" x="0" y="-350"/><use xlink:href="#L1_21" x="350" y="-350"/><use xlink:href="#L1_21" x="-350" y="0"/><use xlink:href="#L1_21" x="0" y="0"/><use xlink:href="#L1_21" x="350" y="0"/><use xlink:href="#L1_21" x="-350" y="350"/><use xlink:href="#L1_21" x="0" y="350"/><use xlink:href="#L1_21" x="350" y="350"/></pattern><rect x="0" y="0" width="100%" height="100%" fill="url(#pattern_L1_21)"/></g><g fi:class="KUsePattern"><pattern id="pattern_L1_22" width="350" height="350" patternUnits="userSpaceOnUse"><use xlink:href="#L1_22" x="-350" y="-350"/><use xlink:href="#L1_22" x="0" y="-350"/><use xlink:href="#L1_22" x="350" y="-350"/><use xlink:href="#L1_22" x="-350" y="0"/><use xlink:href="#L1_22" x="0" y="0"/><use xlink:href="#L1_22" x="350" y="0"/><use xlink:href="#L1_22" x="-350" y="350"/><use xlink:href="#L1_22" x="0" y="350"/><use xlink:href="#L1_22" x="350" y="350"/></pattern><rect x="0" y="0" width="100%" height="100%" fill="url(#pattern_L1_22)"/></g><g fi:class="KUsePattern"><pattern id="pattern_L1_23" width="350" height="350" patternUnits="userSpaceOnUse"><use xlink:href="#L1_23" x="-350" y="-350"/><use xlink:href="#L1_23" x="0" y="-350"/><use xlink:href="#L1_23" x="350" y="-350"/><use xlink:href="#L1_23" x="-350" y="0"/><use xlink:href="#L1_23" x="0" y="0"/><use xlink:href="#L1_23" x="350" y="0"/><use xlink:href="#L1_23" x="-350" y="350"/><use xlink:href="#L1_23" x="0" y="350"/><use xlink:href="#L1_23" x="350" y="350"/></pattern><rect x="0" y="0" width="100%" height="100%" fill="url(#pattern_L1_23)"/></g><g fi:class="KUsePattern"><pattern id="pattern_L1_24" width="350" height="350" patternUnits="userSpaceOnUse"><use xlink:href="#L1_24" x="-350" y="-350"/><use xlink:href="#L1_24" x="0" y="-350"/><use xlink:href="#L1_24" x="350" y="-350"/><use xlink:href="#L1_24" x="-350" y="0"/><use xlink:href="#L1_24" x="0" y="0"/><use xlink:href="#L1_24" x="350" y="0"/><use xlink:href="#L1_24" x="-350" y="350"/><use xlink:href="#L1_24" x="0" y="350"/><use xlink:href="#L1_24" x="350" y="350"/></pattern><rect x="0" y="0" width="100%" height="100%" fill="url(#pattern_L1_24)"/></g><g fi:class="KUsePattern"><pattern id="pattern_L1_25" width="350" height="350" patternUnits="userSpaceOnUse"><use xlink:href="#L1_25" x="-350" y="-350"/><use xlink:href="#L1_25" x="0" y="-350"/><use xlink:href="#L1_25" x="350" y="-350"/><use xlink:href="#L1_25" x="-350" y="0"/><use xlink:href="#L1_25" x="0" y="0"/><use xlink:href="#L1_25" x="350" y="0"/><use xlink:href="#L1_25" x="-350" y="350"/><use xlink:href="#L1_25" x="0" y="350"/><use xlink:href="#L1_25" x="350" y="350"/></pattern><rect x="0" y="0" width="100%" height="100%" fill="url(#pattern_L1_25)"/></g><g fi:class="KUsePattern"><pattern id="pattern_L1_26" width="350" height="350" patternUnits="userSpaceOnUse"><use xlink:href="#L1_26" x="-350" y="-350"/><use xlink:href="#L1_26" x="0" y="-350"/><use xlink:href="#L1_26" x="350" y="-350"/><use xlink:href="#L1_26" x="-350" y="0"/><use xlink:href="#L1_26" x="0" y="0"/><use xlink:href="#L1_26" x="350" y="0"/><use xlink:href="#L1_26" x="-350" y="350"/><use xlink:href="#L1_26" x="0" y="350"/><use xlink:href="#L1_26" x="350" y="350"/></pattern><rect x="0" y="0" width="100%" height="100%" fill="url(#pattern_L1_26)"/></g><g fi:class="KUsePattern"><pattern id="pattern_L1_27" width="350" height="350" patternUnits="userSpaceOnUse"><use xlink:href="#L1_27" x="-350" y="-350"/><use xlink:href="#L1_27" x="0" y="-350"/><use xlink:href="#L1_27" x="350" y="-350"/><use xlink:href="#L1_27" x="-350" y="0"/><use xlink:href="#L1_27" x="0" y="0"/><use xlink:href="#L1_27" x="350" y="0"/><use xlink:href="#L1_27" x="-350" y="350"/><use xlink:href="#L1_27" x="0" y="350"/><use xlink:href="#L1_27" x="350" y="350"/></pattern><rect x="0" y="0" width="100%" height="100%" fill="url(#pattern_L1_27)"/></g></svg>