<svg xmlns="http://www.w3.org/2000/svg" width="22.42" height="25.623" viewBox="0 0 22.42 25.623"><defs><style>.a{fill:#fff;}</style></defs><path class="a" d="M21.82,8.007H.6a.6.6,0,0,1-.6-.6v-1.8A2.4,2.4,0,0,1,2.4,3.2H4.8V.6A.6.6,0,0,1,5.4,0h2a.6.6,0,0,1,.6.6V3.2h6.406V.6a.6.6,0,0,1,.6-.6h2a.6.6,0,0,1,.6.6V3.2h2.4a2.4,2.4,0,0,1,2.4,2.4v1.8A.6.6,0,0,1,21.82,8.007ZM.6,9.609H21.82a.6.6,0,0,1,.6.6V23.221a2.4,2.4,0,0,1-2.4,2.4H2.4a2.4,2.4,0,0,1-2.4-2.4V10.209A.6.6,0,0,1,.6,9.609Zm16.68,4.8-1.41-1.421a.6.6,0,0,0-.849,0L9.715,18.25l-2.3-2.32a.6.6,0,0,0-.849,0l-1.421,1.41a.6.6,0,0,0,0,.849l4.134,4.167a.6.6,0,0,0,.849,0l7.154-7.1a.6.6,0,0,0,0-.849Z"/></svg>