<svg xmlns="http://www.w3.org/2000/svg" width="27.058" height="27.058" viewBox="0 0 27.058 27.058"><path d="M24.159,2.25H2.9A2.9,2.9,0,0,0,0,5.149v21.26a2.9,2.9,0,0,0,2.9,2.9h21.26a2.9,2.9,0,0,0,2.9-2.9V5.149A2.9,2.9,0,0,0,24.159,2.25Zm-2.953,9.591c.012.169.012.344.012.513a11.193,11.193,0,0,1-11.27,11.27,11.218,11.218,0,0,1-6.082-1.776,8.345,8.345,0,0,0,.954.048,7.942,7.942,0,0,0,4.916-1.691,3.966,3.966,0,0,1-3.7-2.748,4.269,4.269,0,0,0,1.788-.072A3.961,3.961,0,0,1,4.651,13.5v-.048a3.959,3.959,0,0,0,1.788.5,3.953,3.953,0,0,1-1.764-3.3,3.912,3.912,0,0,1,.538-2A11.247,11.247,0,0,0,13.378,12.8a3.97,3.97,0,0,1,6.758-3.618,7.762,7.762,0,0,0,2.513-.954,3.951,3.951,0,0,1-1.739,2.18,7.883,7.883,0,0,0,2.283-.616A8.338,8.338,0,0,1,21.205,11.841Z" transform="translate(0 -2.25)"/></svg>