<svg xmlns="http://www.w3.org/2000/svg" width="27.058" height="27.052" viewBox="0 0 27.058 27.052"><path d="M13.527,8.828a6.936,6.936,0,1,0,6.936,6.936A6.925,6.925,0,0,0,13.527,8.828Zm0,11.445a4.509,4.509,0,1,1,4.509-4.509,4.517,4.517,0,0,1-4.509,4.509ZM22.364,8.544a1.618,1.618,0,1,1-1.618-1.618A1.614,1.614,0,0,1,22.364,8.544Zm4.594,1.642a8.006,8.006,0,0,0-2.185-5.668A8.058,8.058,0,0,0,19.1,2.333c-2.233-.127-8.928-.127-11.161,0A8.047,8.047,0,0,0,2.275,4.512,8.032,8.032,0,0,0,.09,10.18c-.127,2.233-.127,8.928,0,11.161a8.006,8.006,0,0,0,2.185,5.668,8.069,8.069,0,0,0,5.668,2.185c2.233.127,8.928.127,11.161,0a8.006,8.006,0,0,0,5.668-2.185,8.058,8.058,0,0,0,2.185-5.668c.127-2.233.127-8.922,0-11.155ZM24.072,23.738A4.565,4.565,0,0,1,21.5,26.309c-1.781.706-6.006.543-7.974.543s-6.2.157-7.974-.543a4.565,4.565,0,0,1-2.571-2.571c-.706-1.781-.543-6.006-.543-7.974s-.157-6.2.543-7.974A4.565,4.565,0,0,1,5.553,5.218c1.781-.706,6.006-.543,7.974-.543s6.2-.157,7.974.543A4.565,4.565,0,0,1,24.072,7.79c.706,1.781.543,6.006.543,7.974S24.778,21.963,24.072,23.738Z" transform="translate(0.005 -2.238)"/></svg>