<svg xmlns="http://www.w3.org/2000/svg" width="27.058" height="31.145" viewBox="0 0 27.058 31.145"><path d="M16.579.026C18.279,0,19.966.013,21.653,0a8.083,8.083,0,0,0,2.271,5.411,9.152,9.152,0,0,0,5.5,2.323v5.23a13.89,13.89,0,0,1-5.45-1.259,16.033,16.033,0,0,1-2.1-1.207c-.013,3.789.013,7.578-.026,11.355A9.912,9.912,0,0,1,20.1,26.966a9.668,9.668,0,0,1-7.669,4.166,9.462,9.462,0,0,1-5.295-1.337A9.786,9.786,0,0,1,2.4,22.385c-.026-.649-.039-1.3-.013-1.934a9.769,9.769,0,0,1,11.329-8.669c.026,1.921-.052,3.841-.052,5.762A4.452,4.452,0,0,0,7.976,20.3a5.148,5.148,0,0,0-.182,2.089,4.417,4.417,0,0,0,4.542,3.724,4.36,4.36,0,0,0,3.595-2.089,2.994,2.994,0,0,0,.532-1.376c.13-2.323.078-4.633.091-6.956.013-5.23-.013-10.446.026-15.663Z" transform="translate(-2.369)"/></svg>